<svg width="54" height="17" viewBox="0 0 54 17" fill="none" xmlns="http://www.w3.org/2000/svg">
<path d="M7.53927 4.46641C7.49248 3.9946 7.29167 3.62806 6.93683 3.36681C6.582 3.10556 6.10043 2.97493 5.49215 2.97493C5.07882 2.97493 4.72984 3.03342 4.44519 3.1504C4.16054 3.26348 3.94218 3.4214 3.79011 3.62416C3.64193 3.82693 3.56785 4.05699 3.56785 4.31434C3.56005 4.5288 3.60489 4.71596 3.70237 4.87584C3.80375 5.03571 3.94218 5.17413 4.11765 5.29111C4.29312 5.40419 4.49588 5.50362 4.72594 5.5894C4.95599 5.67129 5.20165 5.74148 5.4629 5.79997L6.5391 6.05732C7.06161 6.1743 7.54122 6.33027 7.97794 6.52523C8.41466 6.7202 8.79289 6.96 9.11263 7.24465C9.43238 7.5293 9.67998 7.86464 9.85545 8.25067C10.0348 8.6367 10.1264 9.07927 10.1303 9.57838C10.1264 10.3114 9.93928 10.947 9.56885 11.4851C9.20232 12.0193 8.67201 12.4346 7.97794 12.7309C7.28777 13.0234 6.45527 13.1696 5.48045 13.1696C4.51342 13.1696 3.67118 13.0214 2.95371 12.7251C2.24014 12.4288 1.68254 11.9901 1.28092 11.4091C0.883189 10.8242 0.674577 10.1009 0.65508 9.23914H3.10578C3.13308 9.64076 3.24811 9.9761 3.45087 10.2452C3.65753 10.5103 3.93243 10.7111 4.27557 10.8476C4.6226 10.9802 5.01448 11.0465 5.4512 11.0465C5.88012 11.0465 6.25251 10.9841 6.56835 10.8593C6.88809 10.7345 7.1357 10.561 7.31116 10.3387C7.48663 10.1165 7.57437 9.86107 7.57437 9.57253C7.57437 9.30348 7.49443 9.07732 7.33456 8.89405C7.17859 8.71078 6.94853 8.55481 6.64439 8.42614C6.34414 8.29746 5.97566 8.18048 5.53894 8.0752L4.23463 7.74766C3.22471 7.502 2.42731 7.11793 1.84241 6.59542C1.25752 6.07292 0.967023 5.36909 0.970923 4.48396C0.967023 3.75869 1.16004 3.12506 1.54997 2.58305C1.94379 2.04105 2.48385 1.61798 3.17012 1.31384C3.85639 1.00969 4.63625 0.85762 5.50969 0.85762C6.39873 0.85762 7.17469 1.00969 7.83757 1.31384C8.50435 1.61798 9.02295 2.04105 9.39338 2.58305C9.76382 3.12506 9.95488 3.75284 9.96658 4.46641H7.53927ZM15.8813 13.1755C14.9572 13.1755 14.1617 12.9883 13.4949 12.614C12.8321 12.2357 12.3213 11.7015 11.9625 11.0114C11.6038 10.3173 11.4244 9.49649 11.4244 8.54896C11.4244 7.62483 11.6038 6.81378 11.9625 6.11581C12.3213 5.41784 12.8262 4.87389 13.4774 4.48396C14.1325 4.09403 14.9006 3.89906 15.7819 3.89906C16.3746 3.89906 16.9263 3.9946 17.4371 4.18566C17.9518 4.37283 18.4002 4.65553 18.7824 5.03376C19.1684 5.41199 19.4687 5.8877 19.6831 6.4609C19.8976 7.03019 20.0048 7.69697 20.0048 8.46123V9.14555H12.4187V7.60144H17.6594C17.6594 7.2427 17.5814 6.92491 17.4254 6.64806C17.2695 6.37121 17.053 6.1548 16.7762 5.99883C16.5032 5.83896 16.1855 5.75902 15.8228 5.75902C15.4446 5.75902 15.1092 5.84676 14.8168 6.02223C14.5283 6.19379 14.3021 6.4258 14.1383 6.71825C13.9746 7.0068 13.8907 7.32849 13.8868 7.68332V9.1514C13.8868 9.59592 13.9687 9.98 14.1325 10.3036C14.3001 10.6273 14.5361 10.8768 14.8402 11.0523C15.1443 11.2278 15.505 11.3155 15.9223 11.3155C16.1991 11.3155 16.4526 11.2765 16.6826 11.1985C16.9127 11.1205 17.1096 11.0036 17.2734 10.8476C17.4371 10.6916 17.5619 10.5006 17.6477 10.2744L19.9522 10.4265C19.8352 10.9802 19.5954 11.4637 19.2327 11.877C18.874 12.2864 18.41 12.6062 17.8407 12.8362C17.2753 13.0624 16.6222 13.1755 15.8813 13.1755ZM24.1225 7.80615V13H21.6308V4.01604H24.0055V5.6011H24.1108C24.3096 5.0786 24.643 4.66527 25.1109 4.36113C25.5788 4.05309 26.1462 3.89906 26.813 3.89906C27.4368 3.89906 27.9808 4.03554 28.4448 4.30849C28.9088 4.58144 29.2695 4.97137 29.5269 5.47827C29.7842 5.98128 29.9129 6.58177 29.9129 7.27975V13H27.4212V7.72426C27.4251 7.17446 27.2848 6.74554 27.0001 6.4375C26.7155 6.12556 26.3236 5.96959 25.8245 5.96959C25.4892 5.96959 25.1928 6.04172 24.9355 6.186C24.682 6.33027 24.4831 6.54083 24.3389 6.81768C24.1985 7.09063 24.1264 7.42012 24.1225 7.80615ZM36.6552 4.01604V5.8877H31.245V4.01604H36.6552ZM32.4733 1.86364H34.9649V10.2393C34.9649 10.4694 35 10.6487 35.0702 10.7774C35.1404 10.9022 35.2379 10.9899 35.3626 11.0406C35.4913 11.0913 35.6395 11.1166 35.8072 11.1166C35.9241 11.1166 36.0411 11.1069 36.1581 11.0874C36.2751 11.064 36.3648 11.0465 36.4271 11.0348L36.819 12.8889C36.6942 12.9279 36.5188 12.9727 36.2926 13.0234C36.0665 13.078 35.7916 13.1111 35.4679 13.1228C34.8674 13.1462 34.341 13.0663 33.8887 12.883C33.4403 12.6998 33.0913 12.4151 32.8417 12.0291C32.5922 11.643 32.4694 11.1556 32.4733 10.5668V1.86364ZM38.2783 13V4.01604H40.6939V5.58356H40.7875C40.9513 5.02596 41.2262 4.60483 41.6122 4.32019C41.9982 4.03164 42.4428 3.88737 42.9458 3.88737C43.0706 3.88737 43.2051 3.89516 43.3493 3.91076C43.4936 3.92636 43.6203 3.9478 43.7295 3.9751V6.186C43.6126 6.1509 43.4507 6.11971 43.2441 6.09241C43.0374 6.06512 42.8483 6.05147 42.6767 6.05147C42.3102 6.05147 41.9826 6.13141 41.6941 6.29128C41.4095 6.44725 41.1833 6.66561 41.0156 6.94636C40.8519 7.22711 40.77 7.55075 40.77 7.91728V13H38.2783ZM46.8295 16.369C46.5136 16.369 46.2173 16.3436 45.9404 16.2929C45.6675 16.2462 45.4413 16.1857 45.2619 16.1116L45.8234 14.2517C46.1159 14.3414 46.3791 14.3901 46.6131 14.3979C46.8509 14.4057 47.0556 14.3511 47.2272 14.2341C47.4027 14.1171 47.545 13.9183 47.6542 13.6375L47.8004 13.2574L44.5776 4.01604H47.1979L49.0579 10.6136H49.1515L51.029 4.01604H53.6669L50.1751 13.9709C50.0074 14.4544 49.7793 14.8756 49.4907 15.2343C49.2061 15.5969 48.8454 15.8757 48.4087 16.0707C47.972 16.2696 47.4455 16.369 46.8295 16.369Z" fill="white"/>
</svg>